<svg height="260pt" preserveAspectRatio="xMidYMid meet" viewBox="0 0 260 260" width="260pt" xmlns="http://www.w3.org/2000/svg"><g transform="matrix(.1 0 0 -.1 0 260)"><path d="m1092 2375c-453-82-813-433-896-875-20-104-20-292-1-401 79-451 442-804 910-886 131-22 347-13 476 20 203 53 357 138 503 278 153 146 250 308 303 507 24 86 27 116 27 272 1 201-14 281-81 436-97 223-276 417-491 532-212 113-514 160-750 117zm422-335c273-70 482-274 557-545 32-114 32-288 1-399-78-273-282-473-558-547-110-30-305-30-419 0-104 27-245 98-317 158-120 101-217 257-254 409-25 100-22 276 5 377 79 299 331 516 656 567 86 13 237 4 329-20z"/><path d="m866 1390c-39-12-83-56-97-97-15-47-4-97 32-138 77-87 217-54 247 58 20 72-26 157-96 177-42 11-47 11-86 0z"/><path d="m1736 1390c-72-22-118-108-95-178 35-110 158-142 242-64 78 74 42 212-64 242-39 11-44 11-83 0z"/></g></svg>